# xmcd
#
# Track frame offsets: 
#        183
#        14658
#        29475
#        45433
#        58920
#        77468
#        91965
#        106968
#        123733
#        137590
#        153105
#        172630
#        190763
#        208150
#
# Disc length: 3293 seconds
#
# Revision: 2
# Processed by: cddbd v1.5.2PL0 Copyright (c) Steve Scherf et al.
# Submitted via: ExactAudioCopy v0.99pb4
#
DISCID=b10cdb0e
DTITLE=Madness - Utter Madness
DYEAR=1986
DGENRE=Ska
TTITLE0=Our House
TTITLE1=Driving in my Car
TTITLE2=Micheal Caine
TTITLE3=Wings of a Dove
TTITLE4=Yesterdays Men
TTITLE5=Tommorow's just another Day
TTITLE6=I'll compete
TTITLE7=(Waiting for) the Ghost Train
TTITLE8=Uncle Sam
TTITLE9=The Sun and the Rain
TTITLE10=Sweetest Girl
TTITLE11=One better Day
TTITLE12=Victoria Gardens
TTITLE13=Seven Year Scratch
EXTD=YEAR: 1986
EXTT0=
EXTT1=
EXTT2=
EXTT3=
EXTT4=
EXTT5=
EXTT6=
EXTT7=
EXTT8=
EXTT9=
EXTT10=
EXTT11=
EXTT12=
EXTT13=
PLAYORDER=
